<svg xmlns="http://www.w3.org/2000/svg" xmlns:xlink="http://www.w3.org/1999/xlink" width="2018" zoomAndPan="magnify" viewBox="0 0 1513.5 1010.249974" height="1347" preserveAspectRatio="xMidYMid meet" version="1.0"><defs><clipPath id="f9a2d25dbc"><path d="M 0.3125 0 L 1512.6875 0 L 1512.6875 1009.5 L 0.3125 1009.5 Z M 0.3125 0 " clip-rule="nonzero"/></clipPath><clipPath id="a552ef1480"><path d="M 472.433594 219.644531 L 1040.511719 219.644531 L 1040.511719 789.972656 L 472.433594 789.972656 Z M 472.433594 219.644531 " clip-rule="nonzero"/></clipPath></defs><g clip-path="url(#f9a2d25dbc)"><path fill="#ffffff" d="M 0.3125 0 L 1512.6875 0 L 1512.6875 1009.5 L 0.3125 1009.5 Z M 0.3125 0 " fill-opacity="1" fill-rule="nonzero"/><path fill="#fbfbfb" d="M 0.3125 0 L 1512.6875 0 L 1512.6875 1009.5 L 0.3125 1009.5 Z M 0.3125 0 " fill-opacity="1" fill-rule="nonzero"/></g><g clip-path="url(#a552ef1480)"><path fill="#4f1941" d="M 1040.34375 482.820312 C 1040.359375 482.613281 1040.316406 482.414062 1040.25 482.226562 C 1040.246094 482.214844 1040.253906 482.203125 1040.246094 482.191406 L 983.632812 333.496094 C 983.625 333.472656 983.601562 333.464844 983.59375 333.445312 C 983.5 333.222656 983.371094 333.015625 983.171875 332.859375 L 858.667969 233.808594 C 858.472656 233.648438 858.234375 233.535156 857.976562 233.492188 C 857.953125 233.488281 857.9375 233.484375 857.917969 233.484375 L 756.292969 219.660156 C 756.09375 219.636719 755.882812 219.652344 755.683594 219.707031 L 707.25 233.46875 L 705.871094 233.46875 C 705.59375 233.46875 705.332031 233.546875 705.105469 233.683594 C 705.101562 233.683594 705.101562 233.683594 705.101562 233.683594 L 703.867188 234.429688 L 584.648438 268.320312 C 584.609375 268.332031 584.585938 268.363281 584.550781 268.375 C 584.390625 268.4375 584.246094 268.519531 584.113281 268.632812 C 584.058594 268.675781 584.007812 268.714844 583.957031 268.765625 C 583.933594 268.796875 583.898438 268.808594 583.875 268.839844 L 479.472656 404.386719 C 479.441406 404.429688 479.433594 404.476562 479.410156 404.519531 C 479.371094 404.582031 479.324219 404.632812 479.296875 404.699219 C 479.28125 404.742188 479.273438 404.785156 479.261719 404.828125 C 479.234375 404.90625 479.21875 404.988281 479.207031 405.070312 C 479.195312 405.121094 479.171875 405.164062 479.171875 405.214844 L 472.597656 524.421875 C 472.589844 524.527344 472.597656 524.632812 472.609375 524.738281 L 482.238281 585.027344 C 482.25 585.109375 482.289062 585.171875 482.316406 585.25 C 482.328125 585.300781 482.328125 585.355469 482.347656 585.402344 C 482.351562 585.414062 482.367188 585.425781 482.371094 585.4375 C 482.378906 585.453125 482.378906 585.472656 482.386719 585.488281 L 530.992188 678.078125 C 531.074219 678.238281 531.1875 678.382812 531.324219 678.503906 L 588.332031 728.910156 C 588.425781 729.015625 588.527344 729.105469 588.640625 729.179688 L 654.5625 773.617188 C 654.742188 773.738281 654.949219 773.816406 655.167969 773.851562 L 758.589844 789.9375 L 758.605469 789.9375 C 758.605469 789.9375 758.609375 789.9375 758.609375 789.9375 C 758.617188 789.9375 758.617188 789.941406 758.625 789.941406 C 758.703125 789.953125 758.777344 789.960938 758.855469 789.960938 C 758.855469 789.960938 758.855469 789.960938 758.859375 789.960938 C 758.960938 789.960938 759.066406 789.949219 759.164062 789.925781 C 759.164062 789.925781 759.164062 789.925781 759.167969 789.925781 C 759.171875 789.925781 759.175781 789.925781 759.175781 789.925781 C 759.179688 789.925781 759.179688 789.925781 759.179688 789.921875 C 759.179688 789.921875 759.183594 789.921875 759.1875 789.921875 C 759.191406 789.917969 759.203125 789.917969 759.210938 789.914062 C 759.210938 789.914062 759.210938 789.914062 759.214844 789.914062 C 759.214844 789.917969 759.222656 789.910156 759.21875 789.910156 C 759.21875 789.910156 759.222656 789.910156 759.222656 789.910156 L 759.226562 789.910156 C 759.226562 789.910156 759.230469 789.910156 759.230469 789.910156 C 759.234375 789.910156 759.234375 789.90625 759.238281 789.90625 C 759.238281 789.90625 759.242188 789.90625 759.242188 789.90625 C 759.242188 789.910156 759.246094 789.902344 759.25 789.902344 C 759.253906 789.898438 759.257812 789.898438 759.265625 789.898438 L 928.269531 740.5 C 928.332031 740.480469 928.367188 740.417969 928.421875 740.390625 C 928.585938 740.320312 928.714844 740.226562 928.84375 740.101562 C 928.898438 740.046875 928.988281 740.03125 929.035156 739.96875 L 1031.851562 604.351562 C 1032.015625 604.132812 1032.085938 603.886719 1032.121094 603.632812 C 1032.121094 603.605469 1032.148438 603.582031 1032.152344 603.554688 Z M 1029.261719 602.273438 L 984.792969 613.515625 L 1036.777344 491.410156 Z M 848.820312 584.972656 L 684.960938 527.308594 L 808.546875 438.300781 Z M 808.550781 433.5 L 685.316406 352.875 L 845.542969 307.03125 Z M 806.789062 435.902344 L 683.269531 524.863281 L 683.269531 355.09375 Z M 680.289062 525.378906 L 540.113281 456.566406 L 680.289062 355.253906 Z M 710.648438 690.355469 L 577.019531 615.464844 L 680.78125 530.515625 Z M 683.71875 530.03125 L 847.921875 587.816406 L 713.71875 690.558594 Z M 849.71875 590.1875 L 858.375 713.042969 L 716.402344 692.25 Z M 851.628906 583.945312 L 811.425781 437.539062 L 948.136719 451.203125 Z M 950.042969 453.644531 L 980.363281 613.765625 L 853.558594 586.351562 Z M 982.792969 610.601562 L 952.820312 452.296875 L 1036.875 483.574219 Z M 950.253906 446.550781 L 851.171875 307.125 L 980.398438 335.152344 Z M 947.757812 448.175781 L 811.351562 434.539062 L 848.300781 308.21875 Z M 683.734375 350.234375 L 706.941406 237.148438 L 843.617188 304.484375 Z M 680.660156 350.394531 L 575.816406 315.335938 L 703.726562 237.996094 Z M 678.558594 352.832031 L 539.660156 453.214844 L 573.351562 317.648438 Z M 536.390625 454.023438 L 482.820312 405.257812 L 569.582031 320.460938 Z M 570.964844 314.945312 L 494.742188 389.441406 L 581.578125 276.703125 Z M 535.453125 457.203125 L 485.070312 577.660156 L 482.203125 408.714844 Z M 536.832031 461.628906 L 572.324219 613.421875 L 485.691406 583.894531 Z M 539.398438 459.527344 L 679.042969 528.082031 L 575.292969 613.027344 Z M 708.832031 692.753906 L 590.699219 726.03125 L 576.261719 618.453125 Z M 711.902344 694.980469 L 755.921875 785.839844 L 594.34375 728.097656 Z M 759.414062 786.210938 L 715.261719 695.09375 L 856.160156 715.734375 Z M 861.273438 711.828125 L 852.636719 589.199219 L 978.898438 616.496094 Z M 978.398438 620.730469 L 927.054688 737.199219 L 862.984375 714.277344 Z M 983.316406 616.960938 L 1026.921875 605.9375 L 934.335938 728.058594 Z M 952.65625 449.058594 L 982.484375 338.839844 L 1036.296875 480.179688 Z M 858.828125 237.742188 L 976.324219 331.21875 L 849.398438 303.691406 Z M 756.199219 222.652344 L 835.734375 233.46875 L 718.136719 233.46875 Z M 856.007812 236.449219 L 846.546875 302.613281 L 712.261719 236.449219 Z M 574.730469 312.511719 L 586.269531 270.953125 L 694.203125 240.273438 Z M 475.570312 524.425781 L 479.863281 446.59375 L 481.851562 563.789062 Z M 533.5 676.449219 L 494.054688 601.3125 L 579.875 717.46875 Z M 487.730469 587.738281 L 573.035156 616.808594 L 587.207031 722.382812 Z M 600.070312 733.304688 L 743.554688 784.578125 L 655.945312 770.953125 Z M 860.230469 716.453125 L 923.039062 738.929688 L 766.628906 784.644531 Z M 860.230469 716.453125 " fill-opacity="1" fill-rule="nonzero"/></g></svg>