<svg xmlns="http://www.w3.org/2000/svg" xmlns:xlink="http://www.w3.org/1999/xlink" width="1080" zoomAndPan="magnify" viewBox="0 0 810 809.999993" height="1080" preserveAspectRatio="xMidYMid meet" version="1.0"><defs><g/></defs><g fill="#000" fill-opacity="1"><g transform="translate(221.633628, 335.923467)"><g><path d="M 13.921875 -37.015625 L 2.1875 -5.828125 L -61.265625 -29.703125 L -56.828125 -41.484375 L -4.625 -21.84375 L 2.671875 -41.25 Z M 13.921875 -37.015625 "/></g></g></g><g fill="#000" fill-opacity="1"><g transform="translate(231.213616, 305.285399)"><g><path d="M 9.40625 -61.359375 C 12.40625 -59.441406 14.863281 -57.035156 16.78125 -54.140625 C 18.707031 -51.253906 20.007812 -48.101562 20.6875 -44.6875 C 21.375 -41.269531 21.421875 -37.8125 20.828125 -34.3125 C 20.234375 -30.820312 18.953125 -27.53125 16.984375 -24.4375 C 14.972656 -21.28125 12.515625 -18.707031 9.609375 -16.71875 C 6.710938 -14.726562 3.566406 -13.34375 0.171875 -12.5625 C -3.222656 -11.789062 -6.648438 -11.671875 -10.109375 -12.203125 C -13.566406 -12.742188 -16.847656 -14 -19.953125 -15.96875 C -23.046875 -17.945312 -25.566406 -20.390625 -27.515625 -23.296875 C -29.460938 -26.210938 -30.800781 -29.375 -31.53125 -32.78125 C -32.269531 -36.1875 -32.347656 -39.625 -31.765625 -43.09375 C -31.179688 -46.5625 -29.898438 -49.847656 -27.921875 -52.953125 C -25.859375 -56.203125 -23.367188 -58.832031 -20.453125 -60.84375 C -17.535156 -62.863281 -14.375 -64.265625 -10.96875 -65.046875 C -7.570312 -65.828125 -4.125 -65.914062 -0.625 -65.3125 C 2.863281 -64.707031 6.207031 -63.390625 9.40625 -61.359375 Z M 2.484375 -51.1875 C 0.109375 -52.707031 -2.410156 -53.53125 -5.078125 -53.65625 C -7.742188 -53.789062 -10.265625 -53.296875 -12.640625 -52.171875 C -15.023438 -51.046875 -16.957031 -49.328125 -18.4375 -47.015625 C -19.851562 -44.785156 -20.582031 -42.359375 -20.625 -39.734375 C -20.675781 -37.117188 -20.09375 -34.625 -18.875 -32.25 C -17.65625 -29.882812 -15.859375 -27.945312 -13.484375 -26.4375 C -11.066406 -24.894531 -8.492188 -24.035156 -5.765625 -23.859375 C -3.046875 -23.691406 -0.507812 -24.175781 1.84375 -25.3125 C 4.195312 -26.457031 6.109375 -28.191406 7.578125 -30.515625 C 9.035156 -32.785156 9.785156 -35.226562 9.828125 -37.84375 C 9.867188 -40.46875 9.25 -42.96875 7.96875 -45.34375 C 6.695312 -47.726562 4.867188 -49.675781 2.484375 -51.1875 Z M 2.484375 -51.1875 "/></g></g></g><g fill="#000" fill-opacity="1"><g transform="translate(259.208687, 262.571836)"><g><path d="M -10.25 -48.015625 C -15.082031 -42.578125 -14.640625 -37.1875 -8.921875 -31.84375 L 11.71875 -12.53125 L 3.390625 -3.625 L -33.734375 -38.34375 L -26.09375 -46.5 L -22.46875 -43.109375 C -23.082031 -45.867188 -23.175781 -48.117188 -22.75 -49.859375 C -22.332031 -51.609375 -21.226562 -53.441406 -19.4375 -55.359375 L -18.8125 -56.03125 Z M -10.25 -48.015625 "/></g></g></g><g fill="#000" fill-opacity="1"><g transform="translate(272.714009, 245.138116)"><g><path d="M 30.3125 -52.953125 C 30.851562 -52.203125 31.296875 -51.535156 31.640625 -50.953125 C 31.992188 -50.378906 32.347656 -49.691406 32.703125 -48.890625 L 1 -25.578125 C 3.414062 -23.535156 6.164062 -22.53125 9.25 -22.5625 C 12.34375 -22.601562 15.335938 -23.691406 18.234375 -25.828125 C 20.265625 -27.316406 21.742188 -28.878906 22.671875 -30.515625 C 23.597656 -32.148438 24.128906 -34.160156 24.265625 -36.546875 L 34.96875 -44.421875 C 36.15625 -40.953125 36.441406 -37.492188 35.828125 -34.046875 C 35.222656 -30.597656 33.972656 -27.398438 32.078125 -24.453125 C 30.179688 -21.503906 27.851562 -19.015625 25.09375 -16.984375 C 21.988281 -14.703125 18.691406 -13.113281 15.203125 -12.21875 C 11.722656 -11.332031 8.253906 -11.113281 4.796875 -11.5625 C 1.347656 -12.019531 -1.878906 -13.113281 -4.890625 -14.84375 C -7.910156 -16.570312 -10.523438 -18.941406 -12.734375 -21.953125 C -14.941406 -24.953125 -16.453125 -28.164062 -17.265625 -31.59375 C -18.085938 -35.019531 -18.234375 -38.441406 -17.703125 -41.859375 C -17.179688 -45.285156 -16.019531 -48.507812 -14.21875 -51.53125 C -12.425781 -54.5625 -10.03125 -57.1875 -7.03125 -59.40625 C -2.945312 -62.40625 1.378906 -64.125 5.953125 -64.5625 C 10.535156 -65.007812 14.957031 -64.242188 19.21875 -62.265625 C 23.488281 -60.285156 27.1875 -57.179688 30.3125 -52.953125 Z M 17.03125 -50.6875 C 14.476562 -52.832031 11.722656 -53.898438 8.765625 -53.890625 C 5.804688 -53.878906 2.800781 -52.753906 -0.25 -50.515625 C -3.164062 -48.367188 -5.078125 -45.875 -5.984375 -43.03125 C -6.890625 -40.195312 -6.78125 -37.179688 -5.65625 -33.984375 Z M 17.03125 -50.6875 "/></g></g></g><g fill="#000" fill-opacity="1"><g transform="translate(311.723024, 215.282264)"><g><path d="M 46.21875 -19.328125 L 34.953125 -14.609375 L 25.359375 -37.546875 C 23.617188 -41.722656 21.9375 -44.710938 20.3125 -46.515625 C 18.695312 -48.328125 17.078125 -49.3125 15.453125 -49.46875 C 13.835938 -49.625 12.097656 -49.3125 10.234375 -48.53125 C 6.515625 -46.976562 4.347656 -44.382812 3.734375 -40.75 C 3.484375 -39.3125 3.566406 -37.734375 3.984375 -36.015625 C 4.398438 -34.296875 5.269531 -31.859375 6.59375 -28.703125 L 15.828125 -6.609375 L 4.5625 -1.90625 L -15.046875 -48.796875 L -4.625 -53.15625 L -2.75 -48.671875 C -1.476562 -51.515625 -0.015625 -53.796875 1.640625 -55.515625 C 3.304688 -57.242188 5.46875 -58.660156 8.125 -59.765625 C 14.78125 -62.546875 20.601562 -62.335938 25.59375 -59.140625 C 27.644531 -57.867188 29.40625 -56.148438 30.875 -53.984375 C 32.351562 -51.816406 33.960938 -48.644531 35.703125 -44.46875 Z M 46.21875 -19.328125 "/></g></g></g><g fill="#000" fill-opacity="1"><g transform="translate(352.996859, 196.387456)"><g><path d="M 55.75 -8.640625 L 44.703125 -6.921875 L 43.6875 -13.453125 C 41.695312 -10.359375 39.507812 -8.007812 37.125 -6.40625 C 34.738281 -4.800781 31.765625 -3.722656 28.203125 -3.171875 C 23.304688 -2.410156 18.78125 -2.851562 14.625 -4.5 C 10.46875 -6.144531 6.992188 -8.773438 4.203125 -12.390625 C 1.410156 -16.015625 -0.367188 -20.335938 -1.140625 -25.359375 C -1.941406 -30.492188 -1.546875 -35.210938 0.046875 -39.515625 C 1.640625 -43.816406 4.175781 -47.410156 7.65625 -50.296875 C 11.144531 -53.191406 15.363281 -55.023438 20.3125 -55.796875 C 23.9375 -56.359375 27.160156 -56.222656 29.984375 -55.390625 C 32.804688 -54.566406 35.460938 -52.921875 37.953125 -50.453125 L 36.921875 -57.15625 L 47.96875 -58.875 Z M 40.484375 -31.625 C 40.015625 -34.71875 38.960938 -37.328125 37.328125 -39.453125 C 35.703125 -41.578125 33.679688 -43.128906 31.265625 -44.109375 C 28.859375 -45.097656 26.203125 -45.367188 23.296875 -44.921875 C 20.460938 -44.484375 18.03125 -43.425781 16 -41.75 C 13.96875 -40.070312 12.515625 -37.960938 11.640625 -35.421875 C 10.765625 -32.878906 10.566406 -30.0625 11.046875 -26.96875 C 11.734375 -22.5625 13.660156 -19.207031 16.828125 -16.90625 C 19.992188 -14.601562 23.785156 -13.796875 28.203125 -14.484375 C 31.285156 -14.960938 33.8125 -16.035156 35.78125 -17.703125 C 37.75 -19.367188 39.132812 -21.410156 39.9375 -23.828125 C 40.738281 -26.242188 40.921875 -28.84375 40.484375 -31.625 Z M 40.484375 -31.625 "/></g></g></g><g fill="#000" fill-opacity="1"><g transform="translate(405.54305, 189.150837)"><g/></g></g><g fill="#000" fill-opacity="1"><g transform="translate(425.011417, 188.343938)"><g><path d="M 48.1875 -12.09375 C 47.457031 -8.0625 45.847656 -4.609375 43.359375 -1.734375 C 40.878906 1.140625 37.867188 3.234375 34.328125 4.546875 C 30.796875 5.859375 27.007812 6.144531 22.96875 5.40625 C 19.0625 4.695312 15.660156 3.238281 12.765625 1.03125 C 9.878906 -1.175781 7.71875 -3.96875 6.28125 -7.34375 C 4.84375 -10.71875 4.332031 -14.539062 4.75 -18.8125 L 17.65625 -16.453125 C 17.1875 -10.828125 19.6875 -7.515625 25.15625 -6.515625 C 27.800781 -6.023438 30.101562 -6.375 32.0625 -7.5625 C 34.019531 -8.757812 35.21875 -10.5625 35.65625 -12.96875 C 35.914062 -14.351562 35.894531 -15.675781 35.59375 -16.9375 C 35.300781 -18.207031 34.71875 -19.332031 33.84375 -20.3125 C 33.269531 -20.96875 32.695312 -21.519531 32.125 -21.96875 C 31.5625 -22.414062 30.625 -23.054688 29.3125 -23.890625 C 28.007812 -24.722656 25.976562 -25.941406 23.21875 -27.546875 C 19.070312 -30.054688 16.078125 -33.082031 14.234375 -36.625 C 12.398438 -40.164062 11.867188 -44.039062 12.640625 -48.25 C 13.285156 -51.800781 14.738281 -54.84375 17 -57.375 C 19.269531 -59.914062 22.035156 -61.757812 25.296875 -62.90625 C 28.554688 -64.050781 31.960938 -64.300781 35.515625 -63.65625 C 39.128906 -62.988281 42.238281 -61.625 44.84375 -59.5625 C 47.445312 -57.5 49.390625 -54.890625 50.671875 -51.734375 C 51.960938 -48.578125 52.34375 -45.03125 51.8125 -41.09375 L 38.984375 -43.4375 C 39.484375 -48.195312 37.566406 -50.972656 33.234375 -51.765625 C 31.191406 -52.140625 29.421875 -51.804688 27.921875 -50.765625 C 26.429688 -49.734375 25.503906 -48.222656 25.140625 -46.234375 C 24.691406 -43.765625 25.554688 -41.523438 27.734375 -39.515625 C 27.992188 -39.285156 28.273438 -39.0625 28.578125 -38.84375 C 28.890625 -38.632812 29.476562 -38.257812 30.34375 -37.71875 C 31.207031 -37.1875 32.625 -36.335938 34.59375 -35.171875 C 38.800781 -32.671875 41.972656 -30.226562 44.109375 -27.84375 C 46.253906 -25.46875 47.609375 -23 48.171875 -20.4375 C 48.734375 -17.882812 48.738281 -15.101562 48.1875 -12.09375 Z M 48.1875 -12.09375 "/></g></g></g><g fill="#000" fill-opacity="1"><g transform="translate(463.343781, 193.552268)"><g><path d="M 51.796875 22.359375 L 41.53125 17.921875 L 44.15625 11.859375 C 40.8125 13.410156 37.703125 14.234375 34.828125 14.328125 C 31.960938 14.421875 28.867188 13.753906 25.546875 12.328125 C 21.003906 10.367188 17.410156 7.582031 14.765625 3.96875 C 12.128906 0.363281 10.59375 -3.707031 10.15625 -8.25 C 9.726562 -12.800781 10.519531 -17.410156 12.53125 -22.078125 C 14.59375 -26.847656 17.441406 -30.628906 21.078125 -33.421875 C 24.710938 -36.210938 28.769531 -37.90625 33.25 -38.5 C 37.738281 -39.09375 42.285156 -38.394531 46.890625 -36.40625 C 50.253906 -34.945312 52.910156 -33.117188 54.859375 -30.921875 C 56.804688 -28.722656 58.179688 -25.921875 58.984375 -22.515625 L 61.671875 -28.75 L 71.9375 -24.3125 Z M 51.109375 -5.21875 C 52.347656 -8.082031 52.84375 -10.847656 52.59375 -13.515625 C 52.351562 -16.191406 51.472656 -18.585938 49.953125 -20.703125 C 48.441406 -22.828125 46.335938 -24.46875 43.640625 -25.625 C 41.003906 -26.769531 38.378906 -27.171875 35.765625 -26.828125 C 33.148438 -26.492188 30.796875 -25.476562 28.703125 -23.78125 C 26.609375 -22.09375 24.941406 -19.8125 23.703125 -16.9375 C 21.929688 -12.84375 21.773438 -8.984375 23.234375 -5.359375 C 24.703125 -1.734375 27.488281 0.960938 31.59375 2.734375 C 34.457031 3.972656 37.164062 4.410156 39.71875 4.046875 C 42.269531 3.691406 44.523438 2.703125 46.484375 1.078125 C 48.453125 -0.535156 49.992188 -2.632812 51.109375 -5.21875 Z M 51.109375 -5.21875 "/></g></g></g><g fill="#000" fill-opacity="1"><g transform="translate(510.315316, 212.898964)"><g><path d="M 39.890625 30.296875 L 30.171875 22.921875 L 45.203125 3.125 C 47.953125 -0.476562 49.703125 -3.4375 50.453125 -5.75 C 51.203125 -8.0625 51.234375 -9.957031 50.546875 -11.4375 C 49.867188 -12.914062 48.734375 -14.257812 47.140625 -15.46875 C 43.921875 -17.914062 40.585938 -18.492188 37.140625 -17.203125 C 35.765625 -16.703125 34.4375 -15.835938 33.15625 -14.609375 C 31.882812 -13.390625 30.210938 -11.421875 28.140625 -8.703125 L 13.65625 10.375 L 3.9375 3 L 34.6875 -37.46875 L 43.671875 -30.640625 L 40.734375 -26.78125 C 43.835938 -27.113281 46.550781 -26.988281 48.875 -26.40625 C 51.195312 -25.832031 53.503906 -24.675781 55.796875 -22.9375 C 61.546875 -18.570312 64.28125 -13.425781 64 -7.5 C 63.925781 -5.09375 63.320312 -2.707031 62.1875 -0.34375 C 61.050781 2.007812 59.113281 4.988281 56.375 8.59375 Z M 39.890625 30.296875 "/></g></g></g><g fill="#000" fill-opacity="1"><g transform="translate(548.087393, 242.313151)"><g><path d="M 47.03125 -7.734375 L 42.046875 -13.109375 L 12.921875 13.921875 L 4.625 4.984375 L 33.75 -22.046875 L 29.6875 -26.421875 L 37.8125 -33.96875 L 41.875 -29.59375 L 54.3125 -41.140625 L 62.609375 -32.203125 L 50.171875 -20.65625 L 55.15625 -15.28125 Z M 47.03125 -7.734375 "/></g></g></g><g fill="#000" fill-opacity="1"><g transform="translate(563.396956, 255.765332)"><g><path d="M 51.65625 34.421875 C 48.65625 36.335938 45.4375 37.554688 42 38.078125 C 38.570312 38.609375 35.160156 38.460938 31.765625 37.640625 C 28.378906 36.816406 25.226562 35.394531 22.3125 33.375 C 19.394531 31.363281 16.953125 28.8125 14.984375 25.71875 C 12.972656 22.5625 11.675781 19.25 11.09375 15.78125 C 10.519531 12.3125 10.597656 8.867188 11.328125 5.453125 C 12.054688 2.046875 13.394531 -1.109375 15.34375 -4.015625 C 17.289062 -6.929688 19.816406 -9.375 22.921875 -11.34375 C 26.015625 -13.320312 29.289062 -14.578125 32.75 -15.109375 C 36.207031 -15.648438 39.632812 -15.53125 43.03125 -14.75 C 46.4375 -13.96875 49.585938 -12.582031 52.484375 -10.59375 C 55.378906 -8.601562 57.816406 -6.054688 59.796875 -2.953125 C 61.859375 0.296875 63.191406 3.664062 63.796875 7.15625 C 64.398438 10.65625 64.332031 14.109375 63.59375 17.515625 C 62.863281 20.921875 61.488281 24.082031 59.46875 27 C 57.457031 29.914062 54.851562 32.390625 51.65625 34.421875 Z M 45.359375 23.875 C 47.734375 22.351562 49.546875 20.410156 50.796875 18.046875 C 52.046875 15.691406 52.660156 13.195312 52.640625 10.5625 C 52.628906 7.925781 51.882812 5.453125 50.40625 3.140625 C 48.988281 0.910156 47.097656 -0.769531 44.734375 -1.90625 C 42.378906 -3.050781 39.875 -3.570312 37.21875 -3.46875 C 34.5625 -3.375 32.046875 -2.570312 29.671875 -1.0625 C 27.253906 0.476562 25.390625 2.441406 24.078125 4.828125 C 22.773438 7.222656 22.144531 9.726562 22.1875 12.34375 C 22.226562 14.96875 22.984375 17.441406 24.453125 19.765625 C 25.910156 22.035156 27.816406 23.738281 30.171875 24.875 C 32.523438 26.019531 35.046875 26.515625 37.734375 26.359375 C 40.429688 26.210938 42.972656 25.382812 45.359375 23.875 Z M 45.359375 23.875 "/></g></g></g><g fill="#000" fill-opacity="1"><g transform="translate(590.320524, 298.137883)"><g><path d="M 28.671875 30.375 C 25.640625 31.519531 22.609375 31.796875 19.578125 31.203125 C 16.546875 30.617188 13.835938 29.316406 11.453125 27.296875 C 9.066406 25.285156 7.269531 22.679688 6.0625 19.484375 C 4.289062 14.785156 4.128906 10.367188 5.578125 6.234375 C 7.023438 2.097656 10.40625 -1.328125 15.71875 -4.046875 L 20.046875 7.4375 C 18.265625 8.769531 17.101562 10.113281 16.5625 11.46875 C 16.03125 12.820312 16.070312 14.328125 16.6875 15.984375 C 17.25 17.472656 18.15625 18.535156 19.40625 19.171875 C 20.65625 19.804688 21.941406 19.875 23.265625 19.375 C 24.179688 19.03125 24.875 18.609375 25.34375 18.109375 C 25.8125 17.609375 26.117188 16.691406 26.265625 15.359375 C 26.421875 14.023438 26.441406 11.90625 26.328125 9 C 26.160156 3.707031 26.765625 -0.367188 28.140625 -3.234375 C 29.515625 -6.109375 31.945312 -8.203125 35.4375 -9.515625 C 38.1875 -10.546875 40.910156 -10.765625 43.609375 -10.171875 C 46.316406 -9.585938 48.765625 -8.335938 50.953125 -6.421875 C 53.148438 -4.503906 54.796875 -2.085938 55.890625 0.828125 C 56.898438 3.515625 57.269531 6.234375 57 8.984375 C 56.738281 11.734375 55.828125 14.25 54.265625 16.53125 C 52.703125 18.8125 50.453125 20.578125 47.515625 21.828125 L 43.328125 10.671875 C 45.648438 9.203125 46.347656 7.234375 45.421875 4.765625 C 44.941406 3.503906 44.160156 2.601562 43.078125 2.0625 C 41.992188 1.53125 40.878906 1.476562 39.734375 1.90625 C 38.941406 2.207031 38.363281 2.570312 38 3 C 37.632812 3.4375 37.453125 4.304688 37.453125 5.609375 C 37.453125 6.921875 37.507812 9.023438 37.625 11.921875 C 37.945312 17.484375 37.421875 21.613281 36.046875 24.3125 C 34.679688 27.019531 32.222656 29.039062 28.671875 30.375 Z M 28.671875 30.375 "/></g></g></g><g fill="#000" fill-opacity="1"><g transform="translate(335.101406, 476.475592)"><g><path d="M 52.96875 -13.171875 C 64.738281 -13.171875 75.5625 -13.664062 85.4375 -14.65625 C 95.3125 -15.65625 103.941406 -16.804688 111.328125 -18.109375 C 119.898438 -19.503906 127.726562 -21.148438 134.8125 -23.046875 L 130.46875 1.203125 C 129.28125 1.097656 127.488281 0.992188 125.09375 0.890625 C 122.695312 0.796875 120.023438 0.695312 117.078125 0.59375 C 114.140625 0.5 111.046875 0.425781 107.796875 0.375 C 104.554688 0.320312 101.488281 0.269531 98.59375 0.21875 C 95.707031 0.175781 93.140625 0.128906 90.890625 0.078125 C 88.648438 0.0234375 87.03125 0 86.03125 0 L 21.390625 0 L 21.390625 -0.59375 C 21.992188 -2.6875 22.566406 -5.28125 23.109375 -8.375 C 23.660156 -11.46875 24.132812 -15.304688 24.53125 -19.890625 C 24.9375 -24.484375 25.238281 -29.945312 25.4375 -36.28125 C 25.632812 -42.613281 25.734375 -50.019531 25.734375 -58.5 L 25.734375 -155.90625 C 25.734375 -164.382812 25.632812 -171.789062 25.4375 -178.125 C 25.238281 -184.46875 24.9375 -189.957031 24.53125 -194.59375 C 24.132812 -199.226562 23.660156 -203.09375 23.109375 -206.1875 C 22.566406 -209.28125 21.992188 -211.875 21.390625 -213.96875 L 21.390625 -214.5625 L 57.3125 -214.5625 L 57.3125 -213.96875 C 56.707031 -211.875 56.128906 -209.28125 55.578125 -206.1875 C 55.035156 -203.09375 54.585938 -199.226562 54.234375 -194.59375 C 53.890625 -189.957031 53.59375 -184.46875 53.34375 -178.125 C 53.09375 -171.789062 52.96875 -164.382812 52.96875 -155.90625 Z M 52.96875 -13.171875 "/></g></g></g><g fill="#000" fill-opacity="1"><g transform="translate(187.79141, 441.523017)"><g><path d="M 52.078125 23.265625 L 50.40625 11.203125 L 2.46875 17.828125 L 1.734375 12.546875 L 49.671875 5.921875 L 48 -6.125 L 52.765625 -6.78125 L 56.84375 22.609375 Z M 52.078125 23.265625 "/></g></g></g><g fill="#000" fill-opacity="1"><g transform="translate(192.801929, 478.01467)"><g><path d="M 47.765625 27.328125 C 43.316406 28.878906 39.335938 28.851562 35.828125 27.25 C 32.316406 25.65625 29.46875 22.523438 27.28125 17.859375 L 13.4375 38.46875 L 11.25 32.21875 L 28.125 7.34375 C 29.769531 12.050781 31.394531 15.660156 33 18.171875 C 34.613281 20.691406 36.460938 22.25 38.546875 22.84375 C 40.628906 23.4375 43.164062 23.210938 46.15625 22.171875 C 50.320312 20.710938 52.800781 18.332031 53.59375 15.03125 C 54.382812 11.726562 53.757812 7.15625 51.71875 1.3125 L 49.25 -5.765625 L 3.5625 10.1875 L 1.796875 5.15625 L 52.03125 -12.375 L 56.375 0.0625 C 58.21875 5.320312 59.066406 9.753906 58.921875 13.359375 C 58.785156 16.960938 57.757812 19.882812 55.84375 22.125 C 53.9375 24.375 51.242188 26.109375 47.765625 27.328125 Z M 47.765625 27.328125 "/></g></g></g><g fill="#000" fill-opacity="1"><g transform="translate(210.287666, 526.786047)"><g><path d="M 29.40625 43.46875 L 26.140625 38.640625 L 36.671875 22.21875 L 22.796875 1.703125 L 3.59375 5.3125 L 0.453125 0.65625 L 57.296875 -10.25 L 60.640625 -5.296875 Z M 39.5 17.78125 L 53.984375 -4.359375 L 27.921875 0.671875 Z M 74.09375 -4.828125 L 59.515625 -11.75 L 61.484375 -16.03125 L 76.171875 -9.203125 Z M 74.09375 -4.828125 "/></g></g></g><g fill="#000" fill-opacity="1"><g transform="translate(245.742915, 575.752547)"><g><path d="M 56.625 -13.8125 L 40.625 -28.4375 L 27.640625 -14.234375 L 43.0625 -0.140625 L 39.8125 3.40625 L 24.390625 -10.6875 L 7.96875 7.28125 L 4.03125 3.6875 L 39.921875 -35.578125 L 59.859375 -17.359375 Z M 56.625 -13.8125 "/></g></g></g><g fill="#000" fill-opacity="1"><g transform="translate(276.255591, 603.083951)"><g><path d="M 29.5625 17.90625 L 4.671875 2.828125 L 32.21875 -42.6875 L 57.109375 -27.609375 L 54.625 -23.484375 L 34.296875 -35.796875 L 24.40625 -19.46875 L 44.0625 -7.578125 L 41.578125 -3.453125 L 21.921875 -15.34375 L 11.734375 1.46875 L 32.0625 13.78125 Z M 29.5625 17.90625 "/></g></g></g><g fill="#000" fill-opacity="1"><g transform="translate(316.40208, 627.944175)"><g><path d="M 64.234375 -7.453125 C 63.148438 -4.265625 61.5 -1.398438 59.28125 1.140625 C 57.070312 3.679688 54.457031 5.757812 51.4375 7.375 C 48.414062 9 45.132812 10.035156 41.59375 10.484375 C 38.050781 10.941406 34.40625 10.644531 30.65625 9.59375 C 26.726562 8.488281 23.269531 6.78125 20.28125 4.46875 C 17.289062 2.15625 14.863281 -0.554688 13 -3.671875 C 11.132812 -6.785156 9.945312 -10.15625 9.4375 -13.78125 C 8.9375 -17.414062 9.210938 -21.109375 10.265625 -24.859375 C 11.304688 -28.554688 12.96875 -31.816406 15.25 -34.640625 C 17.539062 -37.460938 20.257812 -39.726562 23.40625 -41.4375 C 26.5625 -43.144531 29.976562 -44.203125 33.65625 -44.609375 C 37.332031 -45.023438 41.066406 -44.703125 44.859375 -43.640625 C 48.597656 -42.585938 51.925781 -41.003906 54.84375 -38.890625 C 57.769531 -36.773438 60.125 -34.28125 61.90625 -31.40625 C 63.695312 -28.539062 64.738281 -25.5 65.03125 -22.28125 L 59.265625 -23.890625 C 58.398438 -27.515625 56.625 -30.628906 53.9375 -33.234375 C 51.25 -35.835938 47.921875 -37.695312 43.953125 -38.8125 C 40.804688 -39.695312 37.71875 -39.96875 34.6875 -39.625 C 31.65625 -39.28125 28.835938 -38.398438 26.234375 -36.984375 C 23.640625 -35.566406 21.40625 -33.695312 19.53125 -31.375 C 17.664062 -29.0625 16.300781 -26.359375 15.4375 -23.265625 C 14.582031 -20.210938 14.363281 -17.207031 14.78125 -14.25 C 15.195312 -11.289062 16.140625 -8.53125 17.609375 -5.96875 C 19.078125 -3.414062 21.019531 -1.203125 23.4375 0.671875 C 25.851562 2.546875 28.628906 3.925781 31.765625 4.8125 C 35.140625 5.757812 38.484375 5.9375 41.796875 5.34375 C 45.109375 4.75 48.09375 3.578125 50.75 1.828125 C 53.40625 0.0859375 55.414062 -2.035156 56.78125 -4.546875 L 28.15625 -12.59375 L 29.453125 -17.21875 Z M 64.234375 -7.453125 "/></g></g></g><g fill="#000" fill-opacity="1"><g transform="translate(387.46252, 646.040968)"><g><path d="M 57.6875 -30.125 C 57.914062 -26.394531 57.398438 -22.816406 56.140625 -19.390625 C 54.878906 -15.972656 53.03125 -12.925781 50.59375 -10.25 C 48.15625 -7.582031 45.289062 -5.425781 42 -3.78125 C 38.71875 -2.132812 35.15625 -1.195312 31.3125 -0.96875 C 27.4375 -0.726562 23.753906 -1.222656 20.265625 -2.453125 C 16.773438 -3.691406 13.65625 -5.5 10.90625 -7.875 C 8.164062 -10.257812 5.976562 -13.082031 4.34375 -16.34375 C 2.707031 -19.613281 1.769531 -23.1875 1.53125 -27.0625 C 1.3125 -30.75 1.84375 -34.269531 3.125 -37.625 C 4.40625 -40.976562 6.257812 -43.988281 8.6875 -46.65625 C 11.125 -49.332031 14 -51.492188 17.3125 -53.140625 C 20.632812 -54.785156 24.1875 -55.722656 27.96875 -55.953125 C 31.8125 -56.179688 35.460938 -55.675781 38.921875 -54.4375 C 42.378906 -53.207031 45.476562 -51.414062 48.21875 -49.0625 C 50.96875 -46.707031 53.175781 -43.90625 54.84375 -40.65625 C 56.507812 -37.414062 57.457031 -33.90625 57.6875 -30.125 Z M 52.296875 -29.734375 C 52.109375 -32.835938 51.34375 -35.71875 50 -38.375 C 48.65625 -41.039062 46.867188 -43.347656 44.640625 -45.296875 C 42.410156 -47.253906 39.90625 -48.75 37.125 -49.78125 C 34.34375 -50.820312 31.390625 -51.25 28.265625 -51.0625 C 25.210938 -50.875 22.351562 -50.109375 19.6875 -48.765625 C 17.019531 -47.429688 14.695312 -45.65625 12.71875 -43.4375 C 10.75 -41.21875 9.242188 -38.71875 8.203125 -35.9375 C 7.160156 -33.15625 6.734375 -30.257812 6.921875 -27.25 C 7.109375 -24.082031 7.875 -21.15625 9.21875 -18.46875 C 10.570312 -15.789062 12.351562 -13.472656 14.5625 -11.515625 C 16.769531 -9.554688 19.285156 -8.070312 22.109375 -7.0625 C 24.941406 -6.0625 27.910156 -5.660156 31.015625 -5.859375 C 34.140625 -6.046875 37.019531 -6.804688 39.65625 -8.140625 C 42.289062 -9.472656 44.597656 -11.242188 46.578125 -13.453125 C 48.554688 -15.671875 50.050781 -18.171875 51.0625 -20.953125 C 52.070312 -23.734375 52.484375 -26.660156 52.296875 -29.734375 Z M 52.296875 -29.734375 "/></g></g></g><g fill="#000" fill-opacity="1"><g transform="translate(456.244435, 638.775333)"><g/></g></g><g fill="#000" fill-opacity="1"><g transform="translate(480.534633, 632.303411)"><g><path d="M 20.609375 -51.046875 C 22.066406 -48.023438 22.71875 -45.195312 22.5625 -42.5625 C 22.414062 -39.925781 21.3125 -37.445312 19.25 -35.125 C 17.195312 -32.8125 13.988281 -30.609375 9.625 -28.515625 L 0.40625 -24.078125 L 9.734375 -4.671875 L 4.921875 -2.375 L -18.125 -50.328125 L -4.875 -56.6875 C 1.707031 -59.84375 7 -60.945312 11 -60 C 15 -59.050781 18.203125 -56.066406 20.609375 -51.046875 Z M 15.734375 -48.703125 C 14.566406 -51.117188 13.285156 -52.84375 11.890625 -53.875 C 10.492188 -54.90625 8.972656 -55.414062 7.328125 -55.40625 C 5.691406 -55.394531 3.898438 -55.023438 1.953125 -54.296875 C 0.00390625 -53.578125 -2.113281 -52.664062 -4.40625 -51.5625 L -11.21875 -48.28125 L -1.6875 -28.4375 L 7.203125 -32.71875 C 11.960938 -35 14.988281 -37.363281 16.28125 -39.8125 C 17.582031 -42.269531 17.398438 -45.234375 15.734375 -48.703125 Z M 15.734375 -48.703125 "/></g></g></g><g fill="#000" fill-opacity="1"><g transform="translate(526.031092, 610.057584)"><g><path d="M 40.015625 -33.96875 L 35.5625 -30.1875 L 18.09375 -38.859375 L -0.78125 -22.84375 L 4.890625 -4.140625 L 0.609375 -0.515625 L -16.4375 -55.84375 L -11.875 -59.71875 Z M 13.375 -41.203125 L -10.203125 -53.1875 L -2.359375 -27.828125 Z M 13.375 -41.203125 "/></g></g></g><g fill="#000" fill-opacity="1"><g transform="translate(573.614632, 568.625651)"><g><path d="M 10.8125 -63.765625 C 13.550781 -61.828125 15.832031 -59.441406 17.65625 -56.609375 C 19.476562 -53.773438 20.742188 -50.675781 21.453125 -47.3125 C 22.171875 -43.957031 22.25 -40.515625 21.6875 -36.984375 C 21.132812 -33.460938 19.832031 -30.050781 17.78125 -26.75 C 15.613281 -23.289062 13.003906 -20.445312 9.953125 -18.21875 C 6.898438 -16 3.613281 -14.425781 0.09375 -13.5 C -3.414062 -12.582031 -6.984375 -12.390625 -10.609375 -12.921875 C -14.234375 -13.453125 -17.695312 -14.75 -21 -16.8125 C -24.257812 -18.84375 -26.925781 -21.351562 -29 -24.34375 C -31.070312 -27.332031 -32.484375 -30.570312 -33.234375 -34.0625 C -33.992188 -37.5625 -34.054688 -41.132812 -33.421875 -44.78125 C -32.796875 -48.425781 -31.441406 -51.921875 -29.359375 -55.265625 C -27.304688 -58.566406 -24.851562 -61.320312 -22 -63.53125 C -19.15625 -65.75 -16.101562 -67.3125 -12.84375 -68.21875 C -9.59375 -69.132812 -6.378906 -69.285156 -3.203125 -68.671875 L -6.359375 -63.59375 C -10.097656 -63.769531 -13.585938 -62.929688 -16.828125 -61.078125 C -20.078125 -59.234375 -22.789062 -56.5625 -24.96875 -53.0625 C -26.695312 -50.28125 -27.820312 -47.382812 -28.34375 -44.375 C -28.863281 -41.375 -28.804688 -38.425781 -28.171875 -35.53125 C -27.535156 -32.644531 -26.363281 -29.976562 -24.65625 -27.53125 C -22.957031 -25.082031 -20.742188 -23.007812 -18.015625 -21.3125 C -15.328125 -19.632812 -12.503906 -18.582031 -9.546875 -18.15625 C -6.585938 -17.738281 -3.675781 -17.878906 -0.8125 -18.578125 C 2.050781 -19.273438 4.722656 -20.519531 7.203125 -22.3125 C 9.679688 -24.113281 11.78125 -26.394531 13.5 -29.15625 C 15.351562 -32.132812 16.457031 -35.296875 16.8125 -38.640625 C 17.164062 -41.984375 16.875 -45.171875 15.9375 -48.203125 C 15.007812 -51.242188 13.53125 -53.769531 11.5 -55.78125 L -4.21875 -30.546875 L -8.296875 -33.09375 Z M 10.8125 -63.765625 "/></g></g></g><g fill="#000" fill-opacity="1"><g transform="translate(610.854603, 505.458457)"><g><path d="M -12.796875 -63.796875 C -9.148438 -62.972656 -5.859375 -61.476562 -2.921875 -59.3125 C 0.00390625 -57.15625 2.40625 -54.53125 4.28125 -51.4375 C 6.164062 -48.351562 7.441406 -45 8.109375 -41.375 C 8.773438 -37.757812 8.679688 -34.082031 7.828125 -30.34375 C 6.972656 -26.550781 5.460938 -23.148438 3.296875 -20.140625 C 1.140625 -17.140625 -1.460938 -14.65625 -4.515625 -12.6875 C -7.566406 -10.71875 -10.890625 -9.398438 -14.484375 -8.734375 C -18.078125 -8.078125 -21.765625 -8.175781 -25.546875 -9.03125 C -29.160156 -9.851562 -32.394531 -11.347656 -35.25 -13.515625 C -38.101562 -15.679688 -40.472656 -18.304688 -42.359375 -21.390625 C -44.242188 -24.484375 -45.515625 -27.847656 -46.171875 -31.484375 C -46.828125 -35.128906 -46.738281 -38.800781 -45.90625 -42.5 C -45.050781 -46.238281 -43.546875 -49.597656 -41.390625 -52.578125 C -39.242188 -55.566406 -36.65625 -58.046875 -33.625 -60.015625 C -30.59375 -61.992188 -27.285156 -63.328125 -23.703125 -64.015625 C -20.128906 -64.710938 -16.492188 -64.640625 -12.796875 -63.796875 Z M -13.921875 -58.515625 C -16.960938 -59.203125 -19.945312 -59.269531 -22.875 -58.71875 C -25.8125 -58.175781 -28.523438 -57.109375 -31.015625 -55.515625 C -33.515625 -53.921875 -35.648438 -51.929688 -37.421875 -49.546875 C -39.191406 -47.171875 -40.425781 -44.460938 -41.125 -41.421875 C -41.800781 -38.429688 -41.867188 -35.46875 -41.328125 -32.53125 C -40.785156 -29.601562 -39.726562 -26.878906 -38.15625 -24.359375 C -36.582031 -21.835938 -34.601562 -19.6875 -32.21875 -17.90625 C -29.84375 -16.132812 -27.179688 -14.914062 -24.234375 -14.25 C -21.140625 -13.550781 -18.113281 -13.472656 -15.15625 -14.015625 C -12.207031 -14.554688 -9.484375 -15.613281 -6.984375 -17.1875 C -4.492188 -18.769531 -2.367188 -20.773438 -0.609375 -23.203125 C 1.140625 -25.640625 2.359375 -28.378906 3.046875 -31.421875 C 3.742188 -34.460938 3.816406 -37.4375 3.265625 -40.34375 C 2.722656 -43.25 1.664062 -45.957031 0.09375 -48.46875 C -1.476562 -50.988281 -3.457031 -53.125 -5.84375 -54.875 C -8.226562 -56.625 -10.921875 -57.835938 -13.921875 -58.515625 Z M -13.921875 -58.515625 "/></g></g></g><g fill="#000" fill-opacity="1"><g transform="translate(226.586719, 416.988143)"><g><path d="M 2.265625 -32.71875 C -7.625 -27.578125 -18.375 -19.421875 -24.09375 -14.65625 C -29.234375 -20.0625 -38.90625 -29.515625 -48.140625 -35.703125 C -38.234375 -40.84375 -27.515625 -49 -21.765625 -53.78125 C -16.65625 -48.359375 -6.953125 -38.90625 2.265625 -32.71875 Z M -24.34375 -10.390625 C -18.25 -16 -3.375 -27.078125 8.09375 -32.375 C -2.671875 -39.0625 -16.125 -51.734375 -21.515625 -58.046875 C -27.640625 -52.40625 -42.484375 -41.34375 -53.96875 -36.046875 C -43.1875 -29.4375 -29.765625 -16.671875 -24.34375 -10.390625 Z M -24.34375 -10.390625 "/></g></g></g><g fill="#000" fill-opacity="1"><g transform="translate(593.439123, 346.230616)"><g><path d="M -4.625 32.5 C 5.625 28.09375 16.9375 20.703125 22.984375 16.34375 C 27.734375 22.140625 36.71875 32.265625 45.484375 39.125 C 35.234375 43.53125 23.921875 50.90625 17.84375 55.265625 C 13.125 49.46875 4.140625 39.359375 -4.625 32.5 Z M 23.546875 12.109375 C 17.046875 17.296875 1.421875 27.265625 -10.421875 31.734375 C -0.15625 39.1875 12.359375 52.8125 17.296875 59.5 C 23.8125 54.3125 39.421875 44.34375 51.28125 39.890625 C 40.984375 32.484375 28.5 18.796875 23.546875 12.109375 Z M 23.546875 12.109375 "/></g></g></g><g fill="#000" fill-opacity="1"><g transform="translate(371.26512, 539.567199)"><g><path d="M 110.875 -180.453125 L 107.578125 -180.453125 C 106.785156 -182.742188 105.515625 -185.335938 103.765625 -188.234375 C 102.015625 -191.128906 99.71875 -193.847656 96.875 -196.390625 C 94.039062 -198.929688 90.601562 -201.050781 86.5625 -202.75 C 82.519531 -204.445312 77.753906 -205.296875 72.265625 -205.296875 C 67.378906 -205.296875 63.039062 -204.546875 59.25 -203.046875 C 55.457031 -201.546875 52.289062 -199.445312 49.75 -196.75 C 47.207031 -194.0625 45.285156 -190.867188 43.984375 -187.171875 C 42.691406 -183.484375 42.046875 -179.398438 42.046875 -174.921875 C 42.046875 -167.734375 44.066406 -160.875 48.109375 -154.34375 C 52.148438 -147.8125 57.210938 -141.351562 63.296875 -134.96875 C 69.378906 -128.582031 75.960938 -122.195312 83.046875 -115.8125 C 90.128906 -109.425781 96.710938 -102.789062 102.796875 -95.90625 C 108.878906 -89.03125 113.941406 -81.828125 117.984375 -74.296875 C 122.023438 -66.765625 124.046875 -58.65625 124.046875 -49.96875 C 124.046875 -43.488281 122.921875 -36.984375 120.671875 -30.453125 C 118.429688 -23.921875 114.96875 -18.0625 110.28125 -12.875 C 105.59375 -7.6875 99.554688 -3.46875 92.171875 -0.21875 C 84.785156 3.019531 76.007812 4.640625 65.84375 4.640625 C 60.15625 4.640625 54.738281 4.113281 49.59375 3.0625 C 44.457031 2.019531 39.71875 0.726562 35.375 -0.8125 C 31.039062 -2.363281 27.148438 -4.035156 23.703125 -5.828125 C 20.265625 -7.628906 17.453125 -9.273438 15.265625 -10.765625 L 18.703125 -43.84375 L 22.4375 -43.84375 C 23.539062 -39.15625 25.335938 -34.691406 27.828125 -30.453125 C 30.328125 -26.210938 33.394531 -22.46875 37.03125 -19.21875 C 40.675781 -15.976562 44.84375 -13.382812 49.53125 -11.4375 C 54.21875 -9.5 59.351562 -8.53125 64.9375 -8.53125 C 70.019531 -8.53125 74.582031 -9.300781 78.625 -10.84375 C 82.664062 -12.394531 86.132812 -14.539062 89.03125 -17.28125 C 91.925781 -20.019531 94.144531 -23.285156 95.6875 -27.078125 C 97.226562 -30.867188 98 -35.007812 98 -39.5 C 98 -45.78125 96.851562 -51.585938 94.5625 -56.921875 C 92.269531 -62.265625 89.253906 -67.328125 85.515625 -72.109375 C 81.773438 -76.898438 77.535156 -81.539062 72.796875 -86.03125 C 68.054688 -90.519531 63.191406 -95.035156 58.203125 -99.578125 C 53.210938 -104.117188 48.347656 -108.78125 43.609375 -113.5625 C 38.878906 -118.351562 34.640625 -123.46875 30.890625 -128.90625 C 27.148438 -134.34375 24.132812 -140.175781 21.84375 -146.40625 C 19.550781 -152.644531 18.40625 -159.503906 18.40625 -166.984375 C 18.40625 -174.867188 19.925781 -181.976562 22.96875 -188.3125 C 26.007812 -194.644531 30.046875 -200.054688 35.078125 -204.546875 C 40.117188 -209.035156 45.832031 -212.472656 52.21875 -214.859375 C 58.601562 -217.253906 65.1875 -218.453125 71.96875 -218.453125 C 76.957031 -218.453125 81.546875 -218.050781 85.734375 -217.25 C 89.921875 -216.457031 93.6875 -215.507812 97.03125 -214.40625 C 100.375 -213.3125 103.289062 -212.21875 105.78125 -211.125 C 108.28125 -210.03125 110.328125 -209.132812 111.921875 -208.4375 Z M 110.875 -180.453125 "/></g></g></g></svg>